<?xml version="1.0" encoding="UTF-8" standalone="no"?>
<!-- Created with Inkscape (http://www.inkscape.org/) -->

<svg
   width="64"
   height="64"
   viewBox="0 0 64 64"
   version="1.1"
   id="svg1"
   xml:space="preserve"
   sodipodi:docname="climate-shelter.svg"
   inkscape:version="1.4 (86a8ad7, 2024-10-11)"
   inkscape:export-filename="climate-shelter.svg"
   inkscape:export-xdpi="100"
   inkscape:export-ydpi="100"
   inkscape:export-batch-path="C:\Users\Lluis Salvat\git\webgis-demo\res\svg_icons"
   inkscape:export-batch-name="batch"
   xmlns:inkscape="http://www.inkscape.org/namespaces/inkscape"
   xmlns:sodipodi="http://sodipodi.sourceforge.net/DTD/sodipodi-0.dtd"
   xmlns="http://www.w3.org/2000/svg"
   xmlns:svg="http://www.w3.org/2000/svg"><sodipodi:namedview
     id="namedview1"
     pagecolor="#505050"
     bordercolor="#ffffff"
     borderopacity="1"
     inkscape:showpageshadow="0"
     inkscape:pageopacity="0"
     inkscape:pagecheckerboard="1"
     inkscape:deskcolor="#505050"
     inkscape:document-units="mm"
     inkscape:zoom="5.580303"
     inkscape:cx="3.2256313"
     inkscape:cy="41.126799"
     inkscape:window-width="1920"
     inkscape:window-height="1001"
     inkscape:window-x="-9"
     inkscape:window-y="-9"
     inkscape:window-maximized="1"
     inkscape:current-layer="layer1" /><defs
     id="defs1"><linearGradient
       id="swatch8"
       inkscape:swatch="solid"><stop
         style="stop-color:#000000;stop-opacity:1;"
         offset="0"
         id="stop8" /></linearGradient><linearGradient
       id="swatch7"
       inkscape:swatch="solid"><stop
         style="stop-color:#000000;stop-opacity:1;"
         offset="0"
         id="stop7" /></linearGradient><linearGradient
       id="swatch4"><stop
         style="stop-color:#000000;stop-opacity:1;"
         offset="0"
         id="stop4" /></linearGradient></defs><circle
     style="fill:#ffffff;fill-opacity:1;stroke:#000012;stroke-width:0.669523;stroke-dasharray:none;stroke-opacity:1"
     id="path2"
     cx="32"
     cy="32"
     r="31.665239" /><g
     inkscape:label="Capa 1"
     inkscape:groupmode="layer"
     id="layer1"><g
       style="fill:#8ddcff;fill-opacity:1"
       id="g3"
       transform="matrix(0.67633083,0,0,0.67633083,5.5137843,22.76515)"><g
         id="g2"
         style="fill:#8ddcff;fill-opacity:1">
	<g
   id="g1"
   style="fill:#8ddcff;fill-opacity:1">
		<path
   d="M 44.752,20.914 25.935,2.094 c -0.781,-0.781 -1.842,-1.22 -2.946,-1.22 -1.105,0 -2.166,0.439 -2.947,1.22 L 1.221,20.914 c -1.191,1.191 -1.548,2.968 -0.903,4.525 0.646,1.557 2.165,2.557 3.85,2.557 h 2.404 v 13.461 c 0,2.013 1.607,3.642 3.621,3.642 h 3.203 V 32.93 c 0,-0.927 0.766,-1.651 1.692,-1.651 h 6.223 c 0.926,0 1.673,0.725 1.673,1.651 V 45.098 H 32.372528 35.783 c 2.013,0 3.612,-1.629 3.612,-3.642 v -13.46 h 2.411 c 1.685,0 3.204,-1 3.85,-2.557 0.644,-1.557 0.288,-3.333 -0.904,-4.525 z"
   id="path1"
   style="fill:#8ddcff;fill-opacity:1"
   sodipodi:nodetypes="ccscccscsscssssccsscscc" />
	</g>
</g></g><g
       style="fill:#ffff00;fill-opacity:1;stroke:#000000;stroke-width:1.47809;stroke-dasharray:none;stroke-opacity:1"
       id="g4"
       transform="matrix(1.3410425,0,0,1.3410425,29.295741,4.7667539)"><path
         d="m 10.015625,2.8677083 v 1 m 0,15.9999997 v 1 m -8,-9 h -1 m 3.31412,-5.6858797 -0.81412,-0.81412 m 12.1859,0.81412 0.8141,-0.81412 m -12.18588,12.1899997 -0.81412,0.8101 m 12.1859,-0.8101 0.8141,0.8101 m 2.5,-6.5001 h -1 m -4,0 c 0,2.2091 -1.7909,4 -4,4 -2.20914,0 -4,-1.7909 -4,-4 0,-2.2091397 1.79086,-3.9999997 4,-3.9999997 2.2091,0 4,1.79086 4,3.9999997 z"
         stroke="#000000"
         stroke-width="2"
         stroke-linecap="round"
         stroke-linejoin="round"
         id="path1-2"
         style="opacity:1;fill:#ffff00;fill-opacity:1;stroke:#000012;stroke-width:1.47809;stroke-dasharray:none;stroke-opacity:1"
         sodipodi:nodetypes="ccccccccccccccccsssss" /></g></g></svg>
